<mxfile host="app.diagrams.net" modified="2021-05-31T19:45:55.024Z" agent="5.0 (Windows NT 10.0; Win64; x64) AppleWebKit/537.36 (KHTML, like Gecko) Chrome/90.0.4430.212 Safari/537.36" etag="S_P8GnFQt3mj-VTWsMZF" version="14.7.3" type="github">
  <diagram id="C5RBs43oDa-KdzZeNtuy" name="Page-1">
    <mxGraphModel dx="1600" dy="876" grid="1" gridSize="10" guides="1" tooltips="1" connect="1" arrows="1" fold="1" page="1" pageScale="1" pageWidth="827" pageHeight="1169" math="0" shadow="0">
      <root>
        <mxCell id="WIyWlLk6GJQsqaUBKTNV-0" />
        <mxCell id="WIyWlLk6GJQsqaUBKTNV-1" parent="WIyWlLk6GJQsqaUBKTNV-0" />
        <mxCell id="gCmtrB_vL_Pq--cvEU9W-0" value="Game Area" style="swimlane;" vertex="1" parent="WIyWlLk6GJQsqaUBKTNV-1">
          <mxGeometry x="135" y="270" width="170" height="160" as="geometry">
            <mxRectangle x="70" y="90" width="100" height="23" as="alternateBounds" />
          </mxGeometry>
        </mxCell>
        <mxCell id="gCmtrB_vL_Pq--cvEU9W-2" value="&amp;nbsp;- nextShape:Shape" style="text;html=1;align=center;verticalAlign=middle;resizable=0;points=[];autosize=1;strokeColor=none;" vertex="1" parent="gCmtrB_vL_Pq--cvEU9W-0">
          <mxGeometry x="-5" y="70" width="120" height="20" as="geometry" />
        </mxCell>
        <mxCell id="gCmtrB_vL_Pq--cvEU9W-3" value="- bestScore:Long" style="text;html=1;align=center;verticalAlign=middle;resizable=0;points=[];autosize=1;strokeColor=none;" vertex="1" parent="gCmtrB_vL_Pq--cvEU9W-0">
          <mxGeometry x="-5" y="50" width="110" height="20" as="geometry" />
        </mxCell>
        <mxCell id="gCmtrB_vL_Pq--cvEU9W-4" value="- speed:Byte" style="text;html=1;align=center;verticalAlign=middle;resizable=0;points=[];autosize=1;strokeColor=none;" vertex="1" parent="gCmtrB_vL_Pq--cvEU9W-0">
          <mxGeometry y="90" width="80" height="20" as="geometry" />
        </mxCell>
        <mxCell id="gCmtrB_vL_Pq--cvEU9W-5" value="- level:Byte" style="text;html=1;align=center;verticalAlign=middle;resizable=0;points=[];autosize=1;strokeColor=none;" vertex="1" parent="gCmtrB_vL_Pq--cvEU9W-0">
          <mxGeometry y="110" width="70" height="20" as="geometry" />
        </mxCell>
        <mxCell id="gCmtrB_vL_Pq--cvEU9W-44" value="-cell:Cell[][]" style="text;html=1;align=center;verticalAlign=middle;resizable=0;points=[];autosize=1;strokeColor=none;" vertex="1" parent="gCmtrB_vL_Pq--cvEU9W-0">
          <mxGeometry x="5" y="130" width="70" height="20" as="geometry" />
        </mxCell>
        <mxCell id="gCmtrB_vL_Pq--cvEU9W-1" value="&amp;nbsp;- currentScore:Long" style="text;html=1;align=center;verticalAlign=middle;resizable=0;points=[];autosize=1;strokeColor=none;" vertex="1" parent="WIyWlLk6GJQsqaUBKTNV-1">
          <mxGeometry x="130" y="300" width="120" height="20" as="geometry" />
        </mxCell>
        <mxCell id="gCmtrB_vL_Pq--cvEU9W-7" value="+startGame()&lt;br&gt;+pause/resume()&lt;br&gt;+mute/unmute()" style="rounded=0;whiteSpace=wrap;html=1;align=left;" vertex="1" parent="WIyWlLk6GJQsqaUBKTNV-1">
          <mxGeometry x="135" y="430" width="170" height="60" as="geometry" />
        </mxCell>
        <mxCell id="gCmtrB_vL_Pq--cvEU9W-9" value="" style="rhombus;whiteSpace=wrap;html=1;fillColor=#000000;" vertex="1" parent="WIyWlLk6GJQsqaUBKTNV-1">
          <mxGeometry x="305" y="350" width="30" height="10" as="geometry" />
        </mxCell>
        <mxCell id="gCmtrB_vL_Pq--cvEU9W-11" value="" style="endArrow=none;html=1;" edge="1" parent="WIyWlLk6GJQsqaUBKTNV-1">
          <mxGeometry width="50" height="50" relative="1" as="geometry">
            <mxPoint x="315" y="354.76" as="sourcePoint" />
            <mxPoint x="385" y="354.76" as="targetPoint" />
          </mxGeometry>
        </mxCell>
        <mxCell id="gCmtrB_vL_Pq--cvEU9W-14" value="Shape&lt;br&gt;-controller:&lt;br&gt;Controller" style="rounded=0;whiteSpace=wrap;html=1;fillColor=#FFFFFF;verticalAlign=top;align=left;" vertex="1" parent="WIyWlLk6GJQsqaUBKTNV-1">
          <mxGeometry x="385" y="330" width="80" height="60" as="geometry" />
        </mxCell>
        <mxCell id="gCmtrB_vL_Pq--cvEU9W-15" value="" style="endArrow=none;html=1;" edge="1" parent="WIyWlLk6GJQsqaUBKTNV-1">
          <mxGeometry width="50" height="50" relative="1" as="geometry">
            <mxPoint x="385" y="350" as="sourcePoint" />
            <mxPoint x="464" y="350" as="targetPoint" />
          </mxGeometry>
        </mxCell>
        <mxCell id="gCmtrB_vL_Pq--cvEU9W-16" value="" style="triangle;whiteSpace=wrap;html=1;fillColor=#FFFFFF;verticalAlign=top;direction=west;" vertex="1" parent="WIyWlLk6GJQsqaUBKTNV-1">
          <mxGeometry x="465" y="345" width="10" height="20" as="geometry" />
        </mxCell>
        <mxCell id="gCmtrB_vL_Pq--cvEU9W-17" value="" style="endArrow=none;html=1;" edge="1" parent="WIyWlLk6GJQsqaUBKTNV-1">
          <mxGeometry width="50" height="50" relative="1" as="geometry">
            <mxPoint x="475" y="354.76" as="sourcePoint" />
            <mxPoint x="495" y="354.76" as="targetPoint" />
          </mxGeometry>
        </mxCell>
        <mxCell id="gCmtrB_vL_Pq--cvEU9W-18" value="" style="endArrow=none;html=1;" edge="1" parent="WIyWlLk6GJQsqaUBKTNV-1">
          <mxGeometry width="50" height="50" relative="1" as="geometry">
            <mxPoint x="495" y="480" as="sourcePoint" />
            <mxPoint x="495" y="310" as="targetPoint" />
          </mxGeometry>
        </mxCell>
        <mxCell id="gCmtrB_vL_Pq--cvEU9W-19" value="" style="endArrow=none;html=1;entryX=0.013;entryY=0.567;entryDx=0;entryDy=0;entryPerimeter=0;" edge="1" parent="WIyWlLk6GJQsqaUBKTNV-1" target="gCmtrB_vL_Pq--cvEU9W-20">
          <mxGeometry width="50" height="50" relative="1" as="geometry">
            <mxPoint x="495" y="310" as="sourcePoint" />
            <mxPoint x="535" y="270" as="targetPoint" />
          </mxGeometry>
        </mxCell>
        <mxCell id="gCmtrB_vL_Pq--cvEU9W-20" value="TShape" style="rounded=0;whiteSpace=wrap;html=1;fillColor=#FFFFFF;verticalAlign=top;" vertex="1" parent="WIyWlLk6GJQsqaUBKTNV-1">
          <mxGeometry x="545" y="260" width="60" height="40" as="geometry" />
        </mxCell>
        <mxCell id="gCmtrB_vL_Pq--cvEU9W-21" value="QShape" style="rounded=0;whiteSpace=wrap;html=1;fillColor=#FFFFFF;verticalAlign=top;" vertex="1" parent="WIyWlLk6GJQsqaUBKTNV-1">
          <mxGeometry x="545" y="310" width="60" height="40" as="geometry" />
        </mxCell>
        <mxCell id="gCmtrB_vL_Pq--cvEU9W-22" value="LShape" style="rounded=0;whiteSpace=wrap;html=1;fillColor=#FFFFFF;verticalAlign=top;" vertex="1" parent="WIyWlLk6GJQsqaUBKTNV-1">
          <mxGeometry x="545" y="365" width="60" height="40" as="geometry" />
        </mxCell>
        <mxCell id="gCmtrB_vL_Pq--cvEU9W-23" value="JShape" style="rounded=0;whiteSpace=wrap;html=1;fillColor=#FFFFFF;verticalAlign=top;" vertex="1" parent="WIyWlLk6GJQsqaUBKTNV-1">
          <mxGeometry x="545" y="420" width="60" height="40" as="geometry" />
        </mxCell>
        <mxCell id="gCmtrB_vL_Pq--cvEU9W-24" value="ZShape" style="rounded=0;whiteSpace=wrap;html=1;fillColor=#FFFFFF;verticalAlign=top;" vertex="1" parent="WIyWlLk6GJQsqaUBKTNV-1">
          <mxGeometry x="545" y="470" width="60" height="40" as="geometry" />
        </mxCell>
        <mxCell id="gCmtrB_vL_Pq--cvEU9W-25" value="SShape" style="rounded=0;whiteSpace=wrap;html=1;fillColor=#FFFFFF;verticalAlign=top;" vertex="1" parent="WIyWlLk6GJQsqaUBKTNV-1">
          <mxGeometry x="545" y="520" width="60" height="40" as="geometry" />
        </mxCell>
        <mxCell id="gCmtrB_vL_Pq--cvEU9W-26" value="" style="endArrow=none;html=1;" edge="1" parent="WIyWlLk6GJQsqaUBKTNV-1">
          <mxGeometry width="50" height="50" relative="1" as="geometry">
            <mxPoint x="495" y="330" as="sourcePoint" />
            <mxPoint x="545" y="330" as="targetPoint" />
          </mxGeometry>
        </mxCell>
        <mxCell id="gCmtrB_vL_Pq--cvEU9W-27" value="" style="endArrow=none;html=1;entryX=0;entryY=0.5;entryDx=0;entryDy=0;" edge="1" parent="WIyWlLk6GJQsqaUBKTNV-1" target="gCmtrB_vL_Pq--cvEU9W-22">
          <mxGeometry width="50" height="50" relative="1" as="geometry">
            <mxPoint x="495" y="354.76" as="sourcePoint" />
            <mxPoint x="545" y="354.76" as="targetPoint" />
          </mxGeometry>
        </mxCell>
        <mxCell id="gCmtrB_vL_Pq--cvEU9W-28" value="" style="endArrow=none;html=1;entryX=0;entryY=0.5;entryDx=0;entryDy=0;" edge="1" parent="WIyWlLk6GJQsqaUBKTNV-1">
          <mxGeometry width="50" height="50" relative="1" as="geometry">
            <mxPoint x="495" y="410" as="sourcePoint" />
            <mxPoint x="545" y="440.24" as="targetPoint" />
          </mxGeometry>
        </mxCell>
        <mxCell id="gCmtrB_vL_Pq--cvEU9W-29" value="" style="endArrow=none;html=1;entryX=0;entryY=0.5;entryDx=0;entryDy=0;" edge="1" parent="WIyWlLk6GJQsqaUBKTNV-1">
          <mxGeometry width="50" height="50" relative="1" as="geometry">
            <mxPoint x="495" y="450" as="sourcePoint" />
            <mxPoint x="545" y="495.24" as="targetPoint" />
          </mxGeometry>
        </mxCell>
        <mxCell id="gCmtrB_vL_Pq--cvEU9W-31" value="" style="endArrow=none;html=1;" edge="1" parent="WIyWlLk6GJQsqaUBKTNV-1">
          <mxGeometry width="50" height="50" relative="1" as="geometry">
            <mxPoint x="495" y="480" as="sourcePoint" />
            <mxPoint x="545" y="540" as="targetPoint" />
          </mxGeometry>
        </mxCell>
        <mxCell id="gCmtrB_vL_Pq--cvEU9W-32" value="" style="rhombus;whiteSpace=wrap;html=1;fillColor=#000000;" vertex="1" parent="WIyWlLk6GJQsqaUBKTNV-1">
          <mxGeometry x="305" y="410" width="30" height="10" as="geometry" />
        </mxCell>
        <mxCell id="gCmtrB_vL_Pq--cvEU9W-33" value="" style="endArrow=none;html=1;" edge="1" parent="WIyWlLk6GJQsqaUBKTNV-1">
          <mxGeometry width="50" height="50" relative="1" as="geometry">
            <mxPoint x="325" y="414.71" as="sourcePoint" />
            <mxPoint x="365" y="415" as="targetPoint" />
          </mxGeometry>
        </mxCell>
        <mxCell id="gCmtrB_vL_Pq--cvEU9W-34" value="" style="endArrow=none;html=1;" edge="1" parent="WIyWlLk6GJQsqaUBKTNV-1">
          <mxGeometry width="50" height="50" relative="1" as="geometry">
            <mxPoint x="365" y="480" as="sourcePoint" />
            <mxPoint x="365" y="410" as="targetPoint" />
          </mxGeometry>
        </mxCell>
        <mxCell id="gCmtrB_vL_Pq--cvEU9W-35" value="Cell" style="swimlane;" vertex="1" parent="WIyWlLk6GJQsqaUBKTNV-1">
          <mxGeometry x="315" y="480" width="120" height="60" as="geometry">
            <mxRectangle x="70" y="90" width="100" height="23" as="alternateBounds" />
          </mxGeometry>
        </mxCell>
        <mxCell id="gCmtrB_vL_Pq--cvEU9W-50" value="" style="endArrow=none;html=1;entryX=0.5;entryY=1;entryDx=0;entryDy=0;" edge="1" parent="gCmtrB_vL_Pq--cvEU9W-35" target="gCmtrB_vL_Pq--cvEU9W-35">
          <mxGeometry width="50" height="50" relative="1" as="geometry">
            <mxPoint x="60" y="90" as="sourcePoint" />
            <mxPoint x="110" y="40" as="targetPoint" />
          </mxGeometry>
        </mxCell>
        <mxCell id="gCmtrB_vL_Pq--cvEU9W-40" value="type:Int" style="text;html=1;align=center;verticalAlign=middle;resizable=0;points=[];autosize=1;strokeColor=none;" vertex="1" parent="WIyWlLk6GJQsqaUBKTNV-1">
          <mxGeometry x="320" y="510" width="50" height="20" as="geometry" />
        </mxCell>
        <mxCell id="gCmtrB_vL_Pq--cvEU9W-48" value="Graphics" style="swimlane;" vertex="1" parent="WIyWlLk6GJQsqaUBKTNV-1">
          <mxGeometry x="315" y="590" width="120" height="60" as="geometry">
            <mxRectangle x="70" y="90" width="100" height="23" as="alternateBounds" />
          </mxGeometry>
        </mxCell>
        <mxCell id="gCmtrB_vL_Pq--cvEU9W-51" value="+draw()" style="text;html=1;align=left;verticalAlign=middle;resizable=0;points=[];autosize=1;strokeColor=none;" vertex="1" parent="gCmtrB_vL_Pq--cvEU9W-48">
          <mxGeometry y="30" width="60" height="20" as="geometry" />
        </mxCell>
        <mxCell id="gCmtrB_vL_Pq--cvEU9W-49" value="" style="triangle;whiteSpace=wrap;html=1;fillColor=#FFFFFF;verticalAlign=top;direction=south;" vertex="1" parent="WIyWlLk6GJQsqaUBKTNV-1">
          <mxGeometry x="365" y="570" width="20" height="15" as="geometry" />
        </mxCell>
        <mxCell id="gCmtrB_vL_Pq--cvEU9W-52" value="Tetris" style="text;html=1;align=center;verticalAlign=middle;resizable=0;points=[];autosize=1;strokeColor=none;" vertex="1" parent="WIyWlLk6GJQsqaUBKTNV-1">
          <mxGeometry x="345" y="50" width="40" height="20" as="geometry" />
        </mxCell>
        <mxCell id="gCmtrB_vL_Pq--cvEU9W-53" value="" style="endArrow=none;html=1;entryX=0.5;entryY=1;entryDx=0;entryDy=0;" edge="1" parent="WIyWlLk6GJQsqaUBKTNV-1" target="gCmtrB_vL_Pq--cvEU9W-54">
          <mxGeometry width="50" height="50" relative="1" as="geometry">
            <mxPoint x="424.66" y="330" as="sourcePoint" />
            <mxPoint x="425" y="300" as="targetPoint" />
          </mxGeometry>
        </mxCell>
        <mxCell id="gCmtrB_vL_Pq--cvEU9W-54" value="Controller" style="swimlane;startSize=23;" vertex="1" parent="WIyWlLk6GJQsqaUBKTNV-1">
          <mxGeometry x="365" y="110" width="120" height="180" as="geometry">
            <mxRectangle x="70" y="90" width="100" height="23" as="alternateBounds" />
          </mxGeometry>
        </mxCell>
        <mxCell id="gCmtrB_vL_Pq--cvEU9W-56" value="+rotate()" style="text;html=1;align=center;verticalAlign=middle;resizable=0;points=[];autosize=1;strokeColor=none;" vertex="1" parent="gCmtrB_vL_Pq--cvEU9W-54">
          <mxGeometry y="30" width="60" height="20" as="geometry" />
        </mxCell>
        <mxCell id="gCmtrB_vL_Pq--cvEU9W-57" value="+moveFaster()" style="text;html=1;align=center;verticalAlign=middle;resizable=0;points=[];autosize=1;strokeColor=none;" vertex="1" parent="gCmtrB_vL_Pq--cvEU9W-54">
          <mxGeometry y="50" width="90" height="20" as="geometry" />
        </mxCell>
        <mxCell id="gCmtrB_vL_Pq--cvEU9W-58" value="+pressedLeft()" style="text;html=1;align=center;verticalAlign=middle;resizable=0;points=[];autosize=1;strokeColor=none;" vertex="1" parent="gCmtrB_vL_Pq--cvEU9W-54">
          <mxGeometry y="70" width="90" height="20" as="geometry" />
        </mxCell>
        <mxCell id="gCmtrB_vL_Pq--cvEU9W-59" value="+preesedRight()" style="text;html=1;align=center;verticalAlign=middle;resizable=0;points=[];autosize=1;strokeColor=none;" vertex="1" parent="gCmtrB_vL_Pq--cvEU9W-54">
          <mxGeometry x="-1" y="90" width="100" height="20" as="geometry" />
        </mxCell>
      </root>
    </mxGraphModel>
  </diagram>
</mxfile>
